<?xml version="1.0" encoding="utf-8"?>
<!-- Generator: Adobe Illustrator 22.0.1, SVG Export Plug-In . SVG Version: 6.00 Build 0)  -->
<svg version="1.1" id="Layer_1" xmlns="http://www.w3.org/2000/svg" xmlns:xlink="http://www.w3.org/1999/xlink" x="0px" y="0px"
	 viewBox="0 0 536.8 199.7" style="enable-background:new 0 0 536.8 199.7;" xml:space="preserve">
<style type="text/css">
	.st0{display:none;}
	.st1{display:inline;fill:#454545;}
	.st2{display:inline;fill:#00C802;}
	.st3{display:inline;fill:#FFFFFF;}
	.st4{fill:#FFFFFF;}
	.st5{fill:#676FF7;}
	.st6{fill:#231F20;}
</style>
<g id="Layer_1_1_" class="st0">
	<path class="st1" d="M452.9,145.5c-18.4,0-30-12.7-30-30.5c0-18.1,11.8-30.7,30.3-30.7c18.4,0,30,12.7,30,30.5
		C483.2,132.9,471.4,145.5,452.9,145.5z M452.9,90.9c-13.4,0-21.9,8.8-21.9,23.8c0,15.3,8.7,24,22.1,24s21.9-8.8,21.9-23.8
		C475.1,99.7,466.4,90.9,452.9,90.9z M366.7,144.8c-5.4,0-9.8-0.5-12.1-1.2c-2.3-0.7-2.6-2-2.6-4.5V91c0-2.9,0.7-4.2,4.2-4.9
		c2.6-0.5,7-0.9,12.1-0.9c9.5,0,17.5,1.3,23.8,5.7c6.2,4.3,11,11.9,11,23.8c0,12.8-5.6,20.2-11.9,24.4
		C384,143.8,374.8,144.8,366.7,144.8z M387.2,96.6c-4.6-3.5-10.5-4.8-18.4-4.8c-5.6,0-8.9,0.6-8.9,0.6v45.2c0,0,3,0.5,8.1,0.5
		c8,0,27.1-1.1,27.1-22.9C395.1,106,391.8,100.2,387.2,96.6z M297.6,145.5c-18.4,0-30-12.7-30-30.5c0-18.1,11.8-30.7,30.3-30.7
		c18.4,0,30,12.7,30,30.5C327.9,132.9,316.1,145.5,297.6,145.5z M297.6,90.9c-13.4,0-21.9,8.8-21.9,23.8c0,15.3,8.7,24,22.1,24
		s21.9-8.8,21.9-23.8C319.8,99.7,311.1,90.9,297.6,90.9z M249.9,92.7h-15.8v47.7c0,1.3,0,2.2-0.5,3s-1.8,1.4-3.3,1.4
		c-1.6,0-2.9-0.5-3.4-1.4c-0.5-0.8-0.5-1.7-0.5-3V92.7h-15.9c-1.2,0-2.1-0.1-2.9-0.6c-0.7-0.5-1.2-1.4-1.2-2.8s0.5-2.3,1.2-2.9
		c0.8-0.5,1.7-0.6,2.9-0.6H250c1.2,0,2.1,0.1,2.9,0.6c0.7,0.5,1.2,1.4,1.2,2.8s-0.5,2.3-1.2,2.9C252,92.7,251.1,92.7,249.9,92.7z"/>
	<path class="st2" d="M78.4,5.3c52.4,0,94.9,42.5,94.9,94.9s-42.5,94.9-94.9,94.9s-94.9-42.5-94.9-94.9S26,5.3,78.4,5.3z"/>
	<path class="st3" d="M120.3,57.8l-22.8,80.3c-1.5,5-3.6,7.7-10.2,7.7c-5.7,0-8.2-2.1-8.2-5.7c0-1.1,0.3-2.3,0.6-3.6l22.9-80.3
		c1.5-5.1,3.6-7.7,10.1-7.7c5.8,0,8.4,2.1,8.4,5.6C121,55.3,120.7,56.5,120.3,57.8z M54.8,138c-1.5,5-3.6,7.7-10.2,7.7
		c-5.7,0-8.2-2.1-8.2-5.7c0-1.1,0.3-2.3,0.6-3.6l22.9-80.3c1.5-5.1,3.6-7.7,10.1-7.7c5.8,0,8.4,2.1,8.4,5.6c0,1.3-0.4,2.5-0.8,3.7
		L54.8,138z"/>
</g>
<rect x="477.7" y="134" class="st4" width="48.5" height="13.7"/>
<g>
	<circle class="st5" cx="96.7" cy="99.2" r="94.1"/>
	<g>
		<path class="st4" d="M31.6,88.3c-2.5-2.9-3.4-5.7-0.6-12.7c2.4-6,4.8-8,7.1-7.1c0.7,0.3,1.4,0.8,2,1.6l41.3,44.6
			c2.6,2.9,3.4,5.7,0.6,12.6c-2.5,6.1-4.9,8.2-7.1,7.3c-0.8-0.3-1.4-1.1-2.1-1.7L31.6,88.3z"/>
		<path class="st4" d="M91,132.8c-4.1,4.3-7.6,6-14.3,2.6c-5.8-2.9-7.2-6.3-5.3-9.9c0.6-1.1,1.4-2.3,2.4-3.3l63.9-69.4
			c4.1-4.4,7.6-6,14.2-2.7c5.9,3,7.4,6.4,5.6,9.9c-0.6,1.2-1.7,2.3-2.6,3.5L91,132.8z"/>
	</g>
	<g>
		<path class="st6" d="M234.9,136.8c0,1.1,0,1.9-0.4,2.6c-0.4,0.7-1.5,1.2-2.8,1.2c-1.4,0-2.5-0.4-2.9-1.2c-0.4-0.7-0.4-1.5-0.4-2.6
			v-41h-13.6c-1,0-1.8-0.1-2.5-0.5c-0.6-0.4-1-1.2-1-2.4c0-1.2,0.4-2,1-2.5c0.7-0.4,1.5-0.5,2.5-0.5h33.8c1,0,1.8,0.1,2.5,0.5
			c0.6,0.4,1,1.2,1,2.4c0,1.2-0.4,2-1,2.5c-0.7,0.4-1.5,0.5-2.5,0.5h-13.5V136.8z"/>
		<path class="st6" d="M292.1,88.6c15.9,0,25.7,11,25.7,26.2c0,15.5-10.2,26.4-26,26.4s-25.7-11-25.7-26.2
			C266.1,99.4,276.3,88.6,292.1,88.6z M292.1,135.3c11.5,0,18.8-7.5,18.8-20.5c0-13.1-7.5-20.7-19-20.7s-18.8,7.5-18.8,20.5
			C273.2,127.8,280.6,135.3,292.1,135.3z"/>
		<path class="st6" d="M369.5,135.5c-6.2,4.1-14.2,5-21.1,5c-4.6,0-8.5-0.4-10.4-1s-2.2-1.7-2.2-3.9V94.3c0-2.5,0.6-3.6,3.7-4.2
			c2.2-0.4,6.1-0.8,10.4-0.8c8.1,0,15.1,1.1,20.5,4.9c5.3,3.7,9.4,10.2,9.4,20.4C379.7,125.6,374.9,131.9,369.5,135.5z M342.5,134.3
			c0,0,2.6,0.4,6.9,0.4c6.9,0,23.2-0.9,23.2-19.7c0-7.8-2.8-12.8-6.9-15.9c-3.9-3-9-4.1-15.9-4.1c-4.8,0-7.6,0.5-7.6,0.5
			L342.5,134.3L342.5,134.3z"/>
		<path class="st6" d="M423.3,88.6c15.9,0,25.7,11,25.7,26.2c0,15.5-10.2,26.4-26,26.4s-25.7-11-25.7-26.2
			C397.4,99.4,407.6,88.6,423.3,88.6z M423.3,135.3c11.5,0,18.8-7.5,18.8-20.5c0-13.1-7.5-20.7-19-20.7s-18.8,7.5-18.8,20.5
			C404.3,127.8,411.8,135.3,423.3,135.3z"/>
		<path class="st6" d="M517.9,137.1c0,1.1,0,1.9-0.4,2.6c-0.4,0.7-1.5,1.2-2.8,1.2c-1.4,0-2.5-0.4-2.9-1.2s-0.4-1.5-0.4-2.6v-41
			h-13.6c-1,0-1.8-0.1-2.5-0.5c-0.6-0.4-1-1.2-1-2.4c0-1.2,0.4-2,1-2.5c0.7-0.4,1.5-0.5,2.5-0.5h33.8c1,0,1.8,0.1,2.5,0.5
			c0.6,0.4,1,1.2,1,2.4c0,1.2-0.4,2-1,2.5c-0.7,0.4-1.5,0.5-2.5,0.5h-13.5V137.1z"/>
	</g>
	<path class="st6" d="M479.9,134.5V94.3c0-1.2,0-2.1-0.5-2.9c-0.5-0.8-1.7-1.3-3.3-1.3c-1.5,0-2.7,0.5-3.2,1.3
		c-0.5,0.8-0.5,1.7-0.5,2.9l0,40.2H479.9z"/>
	<path class="st6" d="M472.5,98.6V136c0,1.1,0,1.9,0.5,2.7c0.5,0.7,1.7,1.2,3.3,1.2c1.5,0,2.7-0.5,3.2-1.2c0.5-0.7,0.5-1.6,0.5-2.7
		l0-37.3H472.5z"/>
</g>
</svg>
